<svg width="42" height="42" viewBox="0 0 42 42" fill="none" xmlns="http://www.w3.org/2000/svg">
<path d="M17.5 22.7499C18.2515 23.7547 19.2104 24.586 20.3115 25.1876C21.4126 25.7892 22.6301 26.1469 23.8816 26.2365C25.1331 26.3262 26.3893 26.1456 27.5649 25.7071C28.7404 25.2685 29.808 24.5823 30.695 23.6949L35.945 18.4449C37.5389 16.7947 38.4208 14.5844 38.4009 12.2902C38.381 9.99596 37.4607 7.80135 35.8384 6.17903C34.2161 4.55671 32.0215 3.63648 29.7273 3.61654C27.433 3.59661 25.2228 4.47856 23.5725 6.07244L20.5625 9.06494" stroke="white" stroke-width="3" stroke-linecap="round" stroke-linejoin="round"/>
<path d="M24.4999 19.2499C23.7483 18.2452 22.7895 17.4138 21.6884 16.8123C20.5873 16.2107 19.3697 15.853 18.1182 15.7633C16.8667 15.6737 15.6106 15.8543 14.435 16.2928C13.2594 16.7313 12.1919 17.4175 11.3049 18.3049L6.05486 23.5549C4.46098 25.2052 3.57903 27.4154 3.59896 29.7097C3.6189 32.0039 4.53913 34.1985 6.16145 35.8208C7.78377 37.4431 9.97838 38.3634 12.2726 38.3833C14.5668 38.4032 16.7771 37.5213 18.4274 35.9274L21.4199 32.9349" stroke="white" stroke-width="3" stroke-linecap="round" stroke-linejoin="round"/>
</svg>
