<svg width="42" height="36" viewBox="0 0 42 36" fill="none" xmlns="http://www.w3.org/2000/svg">
<path d="M40.25 2.25002C38.5742 3.4321 36.7187 4.33621 34.755 4.92752C33.701 3.71566 32.3003 2.85673 30.7423 2.46689C29.1843 2.07705 27.5441 2.17511 26.0436 2.74781C24.5432 3.32051 23.2548 4.34022 22.3527 5.66902C21.4507 6.99783 20.9785 8.57161 21 10.1775V11.9275C17.9246 12.0073 14.8772 11.3252 12.1293 9.94205C9.3813 8.55891 7.01805 6.51763 5.25 4.00002C5.25 4.00002 -1.75 19.75 14 26.75C10.3959 29.1965 6.10252 30.4231 1.75 30.25C17.5 39 36.75 30.25 36.75 10.125C36.7484 9.63756 36.7015 9.15131 36.61 8.67252C38.3961 6.91113 39.6564 4.68727 40.25 2.25002V2.25002Z" stroke="white" stroke-width="3" stroke-linecap="round" stroke-linejoin="round"/>
</svg>
